<?xml version="1.0" encoding="UTF-8" standalone="no"?><!DOCTYPE svg PUBLIC "-//W3C//DTD SVG 1.1//EN" "http://www.w3.org/Graphics/SVG/1.1/DTD/svg11.dtd"><svg width="100%" height="100%" viewBox="0 0 913 317" version="1.1" xmlns="http://www.w3.org/2000/svg" xmlns:xlink="http://www.w3.org/1999/xlink" xml:space="preserve" xmlns:serif="http://www.serif.com/" style="fill-rule:evenodd;clip-rule:evenodd;stroke-linejoin:round;stroke-miterlimit:2;"><rect id="Artboard1" x="0" y="0" width="912.156" height="316.667" style="fill:none;"/><g transform="matrix(4.16667,0,0,4.16667,-831.422,-962.5)"><g transform="matrix(64,0,0,64,206.12,293)"><path d="M0.577,-0l-0.133,-0c-0.007,-0 -0.011,-0.004 -0.011,-0.011l0,-0.278l-0.216,0l0,0.289l-0.133,0c-0.007,0 -0.011,-0.004 -0.011,-0.011l0,-0.689l0.133,0c0.007,0 0.011,0.004 0.011,0.011l0,0.278l0.216,0l0,-0.289l0.133,0c0.007,0 0.011,0.004 0.011,0.011l0,0.689Z" style="fill:#1b1d20;fill-rule:nonzero;"/></g><g transform="matrix(64,0,0,64,247.72,293)"><path d="M0.592,-0.239c0,0.076 -0.022,0.135 -0.065,0.177c-0.043,0.041 -0.102,0.062 -0.176,0.062l-0.261,0c-0.007,0 -0.011,-0.004 -0.011,-0.011l0,-0.561l-0.038,0c-0.007,0 -0.011,-0.004 -0.011,-0.011l0,-0.117l0.31,0c0.089,0 0.154,0.022 0.193,0.065c0.039,0.042 0.059,0.1 0.059,0.173l0,0.223Zm-0.369,0.111l0.125,-0c0.04,-0 0.068,-0.011 0.085,-0.032c0.016,-0.021 0.024,-0.05 0.024,-0.087l0,-0.206c0,-0.045 -0.009,-0.077 -0.028,-0.096c-0.017,-0.015 -0.045,-0.023 -0.083,-0.023l-0.123,0l0,0.444Z" style="fill:#1b1d20;fill-rule:nonzero;"/></g><g transform="matrix(64,0,0,64,289.32,293)"><path d="M0.241,-0l-0.133,-0c-0.007,-0 -0.011,-0.004 -0.011,-0.011l0,-0.567l-0.037,0c-0.007,0 -0.011,-0.004 -0.011,-0.011l0,-0.111l0.43,0c0.007,0 0.011,0.004 0.011,0.011l0,0.111l-0.249,0l0,0.192l0.205,0c0.007,0 0.011,0.004 0.011,0.011l0,0.112l-0.216,0l-0,0.263Z" style="fill:#1b1d20;fill-rule:nonzero;"/></g><g transform="matrix(64,0,0,64,324.52,293)"><path d="M0.12,-0.7l0.386,0c0.007,0 0.011,0.004 0.011,0.011l0,0.108l-0.275,0c-0.001,0.005 -0.001,0.011 -0.002,0.017c-0.003,0.026 -0.007,0.054 -0.01,0.083c-0.003,0.029 -0.006,0.055 -0.009,0.08l0.021,0c0.015,-0.011 0.033,-0.019 0.054,-0.024c0.02,-0.005 0.043,-0.008 0.069,-0.008c0.058,0 0.103,0.016 0.134,0.049c0.031,0.032 0.047,0.079 0.047,0.14l0,0.049c0,0.066 -0.022,0.118 -0.066,0.157c-0.043,0.039 -0.108,0.058 -0.193,0.058c-0.054,-0 -0.099,-0.004 -0.135,-0.012c-0.035,-0.008 -0.059,-0.016 -0.072,-0.023c-0.003,-0.002 -0.005,-0.004 -0.006,-0.006c0,-0.002 -0,-0.004 -0,-0.007l-0,-0.123l0.018,0c0.029,0.013 0.059,0.022 0.09,0.028c0.032,0.005 0.067,0.008 0.106,0.008c0.041,0 0.072,-0.008 0.093,-0.024c0.02,-0.016 0.03,-0.037 0.03,-0.062l-0,-0.036c-0,-0.025 -0.007,-0.046 -0.022,-0.062c-0.015,-0.016 -0.04,-0.024 -0.075,-0.024c-0.039,0 -0.073,0.008 -0.102,0.025l-0.12,0c-0.008,0 -0.012,-0.004 -0.011,-0.013c0.001,-0.007 0.002,-0.021 0.004,-0.041c0.002,-0.021 0.004,-0.045 0.007,-0.074c0.003,-0.029 0.007,-0.059 0.01,-0.091c0.003,-0.033 0.006,-0.065 0.009,-0.097c0.003,-0.031 0.006,-0.06 0.009,-0.086Z" style="fill:#1b1d20;fill-rule:nonzero;"/></g><g transform="matrix(48,0,0,48,362.92,293)"><path d="M0.257,-0.001c-0.018,0.007 -0.039,0.011 -0.064,0.011c-0.033,-0 -0.057,-0.006 -0.075,-0.018c-0.017,-0.012 -0.025,-0.038 -0.025,-0.079l0,-0.086c0.024,-0.011 0.051,-0.017 0.081,-0.017c0.026,0 0.046,0.006 0.061,0.018c0.015,0.011 0.022,0.035 0.022,0.07l0,0.101Z" style="fill:#676d75;fill-rule:nonzero;"/></g><g transform="matrix(48,0,0,48,378.28,293)"><path d="M0.14,-0.548c0.091,0 0.136,0.021 0.136,0.062l0,0.487c0,0.033 -0.008,0.064 -0.023,0.094c-0.015,0.031 -0.035,0.056 -0.06,0.075c-0.025,0.02 -0.054,0.03 -0.086,0.03c-0.016,-0 -0.03,-0.002 -0.041,-0.005c-0.011,-0.003 -0.022,-0.009 -0.031,-0.018c-0.009,-0.009 -0.016,-0.023 -0.021,-0.041c-0.005,-0.017 -0.007,-0.035 -0.007,-0.053c-0,-0.014 0.001,-0.026 0.004,-0.036l0.005,0c0.015,0.007 0.029,0.011 0.041,0.014c0.012,0.003 0.026,0.004 0.041,0.004c0.013,-0 0.024,-0.002 0.033,-0.006c0.004,-0.015 0.007,-0.031 0.008,-0.048c0.001,-0.017 0.001,-0.035 0.001,-0.056l0,-0.373l-0.006,-0.003c-0.022,0.01 -0.042,0.015 -0.06,0.015c-0.013,0 -0.024,-0.007 -0.031,-0.021c-0.007,-0.015 -0.01,-0.035 -0.01,-0.062c-0,-0.02 0.002,-0.037 0.005,-0.052c0.017,-0.002 0.034,-0.004 0.052,-0.005c0.019,-0.001 0.035,-0.002 0.05,-0.002Zm-0.026,-0.205c0.025,-0.01 0.055,-0.015 0.09,-0.015c0.029,0 0.053,0.005 0.072,0.015c0.019,0.009 0.028,0.027 0.028,0.052l-0,0.069c-0.023,0.01 -0.049,0.015 -0.08,0.015c-0.032,0 -0.058,-0.007 -0.079,-0.021c-0.021,-0.015 -0.031,-0.034 -0.031,-0.059l-0,-0.056Z" style="fill:#676d75;fill-rule:nonzero;"/></g><g transform="matrix(48,0,0,48,395.08,293)"><path d="M0.07,-0.654c0,-0.017 -0.001,-0.035 -0.004,-0.052c-0.002,-0.018 -0.005,-0.033 -0.01,-0.045c0.014,-0.004 0.032,-0.006 0.054,-0.006c0.025,0 0.048,0.009 0.067,0.026c0.019,0.017 0.029,0.049 0.029,0.094l0,0.432c0,0.031 0.002,0.056 0.007,0.074c0.004,0.003 0.009,0.005 0.014,0.007c0.005,0.002 0.011,0.003 0.018,0.003c0.013,0 0.024,-0.002 0.033,-0.005c0.009,-0.004 0.017,-0.009 0.026,-0.016l0.006,0c0.003,0.011 0.004,0.025 0.004,0.044c-0,0.022 -0.002,0.04 -0.007,0.055c-0.005,0.014 -0.011,0.025 -0.02,0.034c-0.007,0.007 -0.017,0.012 -0.029,0.015c-0.012,0.003 -0.026,0.004 -0.041,0.004c-0.035,-0 -0.064,-0.008 -0.085,-0.024c-0.022,-0.017 -0.038,-0.037 -0.048,-0.062c-0.009,-0.025 -0.014,-0.049 -0.014,-0.074l0,-0.504Z" style="fill:#676d75;fill-rule:nonzero;"/></g></g></svg>
